:SAMPLES-PER-SECOND 30
:FULLY-SPECIFIED
:DEGREES
68
root  -61.7968 40.8925 -19.6803 6.66851 24.1505 0.0222024
RightUpLeg  -13.2265 -13.722 -8.52297
RightLeg  2.55234 -32.6365 7.71285
RightFoot  3.80976 -0.118431 1.08737
RightToes  0.00048216 0.542163 -0.142577
Spine  42.0756 -3.91669 9.30849
Spine1  0.644673 -0.890691 0.395964
HEad  -16.9994 14.6278 -18.6379
LeftShoulder1  11.4122 -20.0092 -42.1006
LeftArm  -9.52568 -31.0152 -33.0684
LeftForeArm  10.5415 -49.2233 -12.2423
LeftHand  -0.25398 0.0180481 5.50724
RightShoulder  6.10688 12.9903 31.0605
RightArm  -12.2864 3.7694 30.9446
RightForeArm  -3.60883 74.0767 49.003
RightHand  -2.16162 5.28693 -23.5639
LeftUpLeg  -30.9264 28.2606 -6.14503
LeftLeg  28.7734 0.407234 0.582685
LeftFoot  -3.91796 0.41068 -5.99497
LeftToes  1.06246e-005 4.65855e-005 -8.185e-006
69
root  -61.3788 40.9189 -19.6247 5.92681 25.8433 -0.0478136
RightUpLeg  -11.5791 -13.9294 -9.37133
RightLeg  2.27751 -33.6636 7.5135
RightFoot  4.08281 -0.145804 1.28323
RightToes  0.00048216 0.542163 -0.142577
Spine  40.3464 -3.87459 9.26208
Spine1  0.41738 -1.00905 0.366742
HEad  -16.8475 17.2235 -19.2729
LeftShoulder1  11.3353 -19.8383 -42.1269
LeftArm  -8.42927 -30.6172 -32.4198
LeftForeArm  9.54149 -49.3075 -12.3579
LeftHand  -0.25398 0.0180481 5.50724
RightShoulder  6.08355 12.9369 31.0393
RightArm  -12.0071 1.06024 31.8947
RightForeArm  1.19385 75.3184 55.4465
RightHand  -2.35912 5.57517 -24.9729
LeftUpLeg  -29.2056 29.1524 -5.12488
LeftLeg  26.0288 1.66685 1.22628
LeftFoot  -4.05666 0.277664 -3.98821
LeftToes  1.06246e-005 4.65855e-005 -8.185e-006
70
root  -60.8885 40.9112 -19.591 5.11635 27.3995 -0.496887
RightUpLeg  -10.0075 -14.0761 -10.0151
RightLeg  1.96626 -34.5049 7.49989
RightFoot  4.60759 -0.186717 1.55537
RightToes  0.00048216 0.542163 -0.142577
Spine  38.6574 -3.80683 9.27569
Spine1  0.180406 -1.0627 0.36416
HEad  -16.098 19.747 -19.8774
LeftShoulder1  11.2185 -19.6823 -41.9639
LeftArm  -7.60857 -30.3606 -32.2456
LeftForeArm  9.01068 -49.2124 -12.3548
LeftHand  -0.25398 0.0180481 5.50724
RightShoulder  6.09427 12.9163 31.1524
RightArm  -11.3791 -1.1546 32.3879
RightForeArm  4.70287 76.0772 60.8219
RightHand  -2.66306 6.23319 -26.5235
LeftUpLeg  -27.9659 31.3562 -4.42297
LeftLeg  23.0031 3.12677 1.78556
LeftFoot  -4.27547 0.177615 -2.45055
LeftToes  1.06246e-005 4.65855e-005 -8.185e-006
71
root  -60.3465 40.8969 -19.5746 4.19975 28.9093 -1.1076
RightUpLeg  -8.065 -14.16 -10.6363
RightLeg  0.983882 -35.6293 7.94946
RightFoot  5.21836 -0.29735 2.28833
RightToes  0.00048216 0.542163 -0.142577
Spine  37.1131 -3.6303 9.07656
Spine1  0.0280225 -1.03539 0.428677
HEad  -15.3412 21.5756 -20.0262
LeftShoulder1  11.0861 -19.5624 -41.6644
LeftArm  -6.68911 -30.5021 -32.6781
LeftForeArm  8.86219 -48.7543 -12.1575
LeftHand  -0.25398 0.0180481 5.50724
RightShoulder  6.10692 12.8505 31.3815
RightArm  -10.7103 -2.80931 32.5338
RightForeArm  6.53589 76.4789 64.5537
RightHand  -3.08972 7.27336 -28.1781
LeftUpLeg  -27.1269 34.5884 -4.15198
LeftLeg  20.3592 6.09583 2.84362
LeftFoot  -5.07295 0.0672334 -0.648554
LeftToes  1.06246e-005 4.65855e-005 -8.185e-006
72
root  -59.7252 40.8569 -19.5728 3.08213 30.3494 -1.86904
RightUpLeg  -5.92447 -14.1466 -11.2255
RightLeg  -0.0595519 -36.8153 8.36783
RightFoot  5.49565 -0.430844 3.16631
RightToes  0.00048216 0.542163 -0.142577
Spine  35.4896 -3.43644 8.81166
Spine1  0.230224 -1.05008 0.63089
HEad  -14.7105 22.6303 -19.6969
LeftShoulder1  10.9591 -19.3636 -41.5382
LeftArm  -5.55912 -31.1473 -33.2964
LeftForeArm  8.63463 -47.8893 -11.7916
LeftHand  -0.25398 0.0180481 5.50724
RightShoulder  6.12607 12.8845 31.4214
RightArm  -10.3537 -3.99464 32.66
RightForeArm  6.61082 76.6363 66.4629
RightHand  -3.50519 8.24849 -29.614
LeftUpLeg  -25.7637 36.8026 -3.40127
LeftLeg  18.1533 11.2665 4.22955
LeftFoot  -5.7919 -0.0172101 1.05054
LeftToes  1.06246e-005 4.65855e-005 -8.185e-006
73
root  -58.9834 40.7698 -19.5832 1.64652 31.5029 -2.80027
RightUpLeg  -3.86342 -14.1261 -11.8462
RightLeg  -0.302473 -37.2223 8.2491
RightFoot  5.69527 -0.562794 4.01293
RightToes  0.00048216 0.542163 -0.142577
Spine  33.7598 -3.38265 8.65287
Spine1  0.812338 -1.15732 0.635023
HEad  -13.7644 23.5495 -19.0155
LeftShoulder1  10.7811 -19.029 -41.4686
LeftArm  -4.46774 -31.9595 -33.9634
LeftForeArm  8.28483 -46.6197 -11.28
LeftHand  -0.25398 0.0180481 5.50724
RightShoulder  6.25737 13.2125 31.4701
RightArm  -10.2346 -4.82578 32.584
RightForeArm  4.36779 76.5699 66.2145
RightHand  -3.8061 8.88014 -30.6728
LeftUpLeg  -22.929 35.6061 -0.92103
LeftLeg  16.8031 17.8321 5.04711
LeftFoot  -5.16944 -0.0736734 1.94152
LeftToes  1.06246e-005 4.65855e-005 -8.185e-006
74
root  -58.1308 40.6438 -19.6008 -0.0608603 32.4335 -3.62845
RightUpLeg  -1.72227 -14.4012 -12.8989
RightLeg  0.4098 -37.0232 7.68919
RightFoot  6.10509 -0.798128 5.4676
RightToes  0.00048216 0.542163 -0.142577
Spine  32.2621 -3.474 8.33351
Spine1  1.4026 -1.34008 0.215063
HEad  -12.2946 24.6369 -17.9107
LeftShoulder1  10.5069 -18.668 -41.0429
LeftArm  -3.5837 -32.6075 -35.0613
LeftForeArm  8.07333 -44.8719 -10.6001
LeftHand  -0.25398 0.0180481 5.50724
RightShoulder  6.51238 13.695 31.9019
RightArm  -10.0762 -5.31753 32.0299
RightForeArm  -0.325078 76.2634 63.7678
RightHand  -3.97361 9.16326 -31.3567
LeftUpLeg  -20.104 33.8981 1.10297
LeftLeg  16.7814 20.5127 5.29255
LeftFoot  -3.63725 -0.14005 2.39687
LeftToes  1.06246e-005 4.65855e-005 -8.185e-006
